<?xml version="1.0" standalone="no"?>
<!DOCTYPE svg PUBLIC "-//W3C//DTD SVG 20010904//EN"
 "http://www.w3.org/TR/2001/REC-SVG-20010904/DTD/svg10.dtd">
<svg version="1.0" xmlns="http://www.w3.org/2000/svg"
 width="270.000000pt" height="270.000000pt" viewBox="0 0 270.000000 270.000000"
 preserveAspectRatio="xMidYMid meet">
<metadata>
Created by potrace 1.11, written by Peter Selinger 2001-2013
</metadata>
<g transform="translate(0.000000,270.000000) scale(0.100000,-0.100000)"
fill="#000000" stroke="none">
<path d="M1389 2407 c-43 -23 -46 -24 -42 -6 5 18 -1 19 -80 19 l-84 0 -8 -42
c-4 -24 -9 -50 -12 -58 -2 -8 -4 -23 -5 -33 -2 -19 -9 -22 -90 -36 -355 -63
-682 -356 -782 -702 -44 -150 -55 -377 -26 -509 87 -400 392 -710 784 -797 95
-21 291 -25 389 -8 399 71 718 370 818 770 39 156 33 371 -16 540 -53 182
-179 369 -335 497 -65 53 -176 121 -235 144 l-43 16 5 49 c7 66 -17 129 -57
153 -17 9 -54 20 -83 23 -43 4 -60 0 -98 -20z m41 -143 c7 -7 -2 -9 -25 -6
-19 2 -33 7 -30 11 6 11 43 7 55 -5z"/>
</g>
</svg>
